<svg width="50" height="16" viewBox="0 0 50 16" fill="none" xmlns="http://www.w3.org/2000/svg">
<path d="M12.4336 3.35156C12.7578 3.35156 12.9629 3.43359 13.0488 3.59766V3.67969L12.9551 3.80273V3.84375C13.0801 3.84375 13.1426 3.85742 13.1426 3.88477C13.1426 4.16211 13.0488 4.33984 12.8613 4.41797L12.9082 4.5V4.54102C12.9082 4.57617 11.8867 5.38086 9.84375 6.95508C4.71094 11.3535 1.96289 13.5527 1.59961 13.5527L1.31836 13.5938C1.22461 13.5664 1.17773 13.5391 1.17773 13.5117C0.982422 13.5117 0.777344 13.7305 0.5625 14.168L0.328125 14.332H0.28125L0.1875 14.291C0.1875 14.3184 0.171875 14.332 0.140625 14.332C0.046875 14.1016 0 13.9375 0 13.8398V13.7578C0 12.3047 0.455078 10.584 1.36523 8.5957C1.83789 7.44336 2.30859 6.40625 2.77734 5.48438H1.22461C1.05664 5.48438 0.884766 5.375 0.708984 5.15625L0.802734 5.11523L0.755859 5.0332C0.755859 4.83008 1.22656 4.625 2.16797 4.41797C3.51953 4.19922 5.16797 4.03516 7.11328 3.92578V3.9668C7.17578 3.93945 7.22266 3.92578 7.25391 3.92578C7.51953 3.92578 8.21094 3.87109 9.32812 3.76172C9.49219 3.78906 9.58594 3.80273 9.60938 3.80273L12.4336 3.35156ZM5.41992 5.32031C5.35742 5.34766 5.30859 5.36133 5.27344 5.36133V5.32031C4.80469 5.32031 4.57031 5.44141 4.57031 5.68359C3.81641 7.24609 3.17188 8.72266 2.63672 10.1133C3.94531 8.74219 5.20117 7.63477 6.4043 6.79102L8.15039 5.23828V5.19727C7.00586 5.2793 6.0957 5.32031 5.41992 5.32031Z" fill="white"/>
<path d="M15.9788 4.40039C15.9866 4.43555 16.0139 4.45312 16.0608 4.45312C16.1155 4.43359 16.1565 4.42383 16.1838 4.42383C16.4612 4.60352 16.5998 4.89844 16.5998 5.30859V5.37305C16.2717 7.74805 16.0979 9.20117 16.0784 9.73242C16.4143 9.66211 16.6057 9.62695 16.6526 9.62695C16.6526 9.64648 16.5705 9.68945 16.4065 9.75586H16.4475C16.5569 9.7207 16.6526 9.70312 16.7346 9.70312C16.6682 9.77344 16.4182 9.91406 15.9846 10.125C15.9377 10.668 15.9123 11.0273 15.9084 11.2031H15.8674C15.8674 11.2188 15.8791 11.2266 15.9026 11.2266C15.5432 13.7383 15.3635 15.043 15.3635 15.1406H15.2815V15.0938C15.2815 15.0039 15.2717 14.8711 15.2522 14.6953H15.2112L15.1995 15.1406H15.1174V15.0586C15.0393 15.0586 14.9944 15.2168 14.9827 15.5332H14.9006L14.8713 15.2168H14.8303L14.8186 15.5098H14.7366C14.6077 15.3223 14.4827 15.0234 14.3616 14.6133H14.3205L14.3147 14.6953H14.2385L14.2502 14.2734H14.2092L14.1565 14.5898V14.6133H14.0745C13.969 14.3516 13.9163 13.957 13.9163 13.4297C13.9163 13.332 13.9182 13.2285 13.9221 13.1191H13.8401V13.1953H13.758L13.8049 13.0137L13.8166 12.7734H13.7756C13.7717 12.8125 13.7405 12.9355 13.6819 13.1426H13.5998V13.0723C13.5998 12.9902 13.5764 12.8906 13.5295 12.7734C13.6155 11.8242 13.6623 11.2832 13.6702 11.1504C12.5959 11.6895 11.8108 11.9785 11.3147 12.0176C10.8186 12.6582 10.3811 13.1035 10.0022 13.3535L9.51586 13.3301H9.3518L9.26977 13.3535C9.24633 13.3223 9.23461 13.2871 9.23461 13.248L9.15258 13.2773C8.89477 13.0547 8.76586 12.8828 8.76586 12.7617V12.6738C8.78539 12.0879 9.98461 10.4336 12.3635 7.71094C12.5159 7.49609 13.2209 6.7168 14.4788 5.37305C14.4944 4.95117 14.7463 4.74023 15.2346 4.74023L15.2756 4.79297L15.2346 4.8457H15.3928C15.4006 4.69336 15.5002 4.57031 15.6916 4.47656C15.7463 4.49609 15.7873 4.50586 15.8147 4.50586C15.8147 4.47852 15.8694 4.44336 15.9788 4.40039ZM14.3498 5.63672C14.3498 5.66406 14.2913 5.75977 14.1741 5.92383V5.94727H14.2151C14.2151 5.9082 14.2717 5.83984 14.385 5.74219L14.3909 5.63672H14.3498ZM14.1389 8.20898C14.135 8.31836 13.6194 9.07031 12.592 10.4648C13.0022 10.3242 13.4123 10.2188 13.8225 10.1484V10.125L14.1741 8.23242L14.1799 8.20898H14.1389ZM13.5705 0.0996094C13.4612 0.169922 13.3616 0.214844 13.2717 0.234375C13.0764 0.398438 12.9358 0.488281 12.8498 0.503906C12.8498 0.515625 12.8577 0.521484 12.8733 0.521484C12.8772 0.521484 12.885 0.519531 12.8967 0.515625C12.7561 0.640625 12.6838 0.734375 12.6799 0.796875C12.5823 0.792969 12.5334 0.779297 12.5334 0.755859C12.3225 0.853516 12.217 0.914062 12.217 0.9375L12.2112 0.960938L12.258 1.00195C11.2385 1.93164 10.7288 2.51758 10.7288 2.75977C10.7288 2.8418 10.7932 2.88281 10.9221 2.88281C11.0315 2.88281 11.1877 2.85156 11.3909 2.78906L11.385 2.8418L11.4377 2.83008L11.6545 2.71289L11.6487 2.73633C11.2307 3.00195 11.0217 3.15625 11.0217 3.19922C11.0217 3.20703 11.0295 3.21094 11.0452 3.21094C11.053 3.21094 11.0627 3.20898 11.0745 3.20508C11.1057 3.22461 11.1389 3.23438 11.1741 3.23438C11.2913 3.23438 11.428 3.12109 11.5842 2.89453C11.0452 3.46484 10.7737 3.78516 10.7698 3.85547L10.7639 3.87891L10.8752 3.85547C10.9729 3.8125 11.0217 3.7793 11.0217 3.75586L11.0803 3.74414C11.0803 3.75977 11.0608 3.77148 11.0217 3.7793V3.78516C11.0217 3.80469 11.0393 3.81445 11.0745 3.81445C11.0862 3.81445 11.1018 3.8125 11.1213 3.80859L11.1741 3.79688L11.8069 3.43359C11.803 3.45312 11.7815 3.48047 11.7424 3.51562L11.7366 3.5625C11.7756 3.55469 12.0217 3.38086 12.4748 3.04102C13.2092 2.57617 13.5784 2.33203 13.5823 2.30859C14.1877 1.95703 15.2561 1.33789 16.7873 0.451172L15.0178 0.398438V0.369141C15.0178 0.212891 14.8928 0.134766 14.6428 0.134766H14.5784V0.128906C14.5784 0.0742188 14.5315 0.03125 14.4377 0L14.2795 0.0292969L14.1858 0.0703125V0.0644531C14.1858 0.0214844 14.1565 0 14.0979 0C14.0784 0 14.0569 0.00195312 14.0334 0.00585938L13.7815 0.152344C13.6409 0.132812 13.5705 0.115234 13.5705 0.0996094Z" fill="white"/>
<path d="M24.3708 6.79102H24.7751C25.0173 6.79102 25.6247 6.82227 26.5973 6.88477V6.93164H26.3395V6.97852H26.5622V7.02539C26.3434 7.10352 25.7966 7.24414 24.9216 7.44727V7.4707H25.1032C25.2907 7.4707 25.6305 7.47852 26.1227 7.49414C26.1227 7.52539 26.1598 7.54102 26.2341 7.54102V7.58789C25.5348 7.79102 25.1696 7.89258 25.1384 7.89258V7.93945L25.5016 7.91602H25.5368V7.96289C25.3571 7.99414 25.2477 8.00977 25.2087 8.00977V8.0332H25.3903L25.5778 8.00977V8.05664C23.9411 8.62695 22.529 8.94727 21.3415 9.01758C19.8298 9.14258 18.9177 9.20508 18.6052 9.20508L18.4587 9.1582C18.4118 9.17383 18.3766 9.18164 18.3532 9.18164L18.2067 8.99414L18.2419 8.94727C18.1442 8.85352 18.0954 8.7832 18.0954 8.73633C18.2985 8.58008 18.4333 8.50195 18.4997 8.50195H18.5348L18.4587 8.43164C18.5407 8.24414 18.6149 8.15039 18.6813 8.15039C18.6305 8.09961 18.6052 8.05273 18.6052 8.00977H18.7165V7.96289L18.6403 7.89258C18.6755 7.83008 18.7985 7.75195 19.0095 7.6582C19.0095 7.5918 19.4841 7.49805 20.4333 7.37695L23.4216 6.88477C23.902 6.82227 24.2184 6.79102 24.3708 6.79102Z" fill="white"/>
<path d="M29.3686 2.92383H29.4448C29.5971 2.95898 29.7397 3.04688 29.8725 3.1875H29.9838C29.9916 3.15234 30.0151 3.13477 30.0541 3.13477H30.1245C30.1245 3.1582 30.1967 3.21094 30.3412 3.29297C30.4428 3.1875 30.5502 3.13477 30.6635 3.13477L30.7397 3.1582C30.7787 3.14258 30.8256 3.13477 30.8803 3.13477C30.9858 3.20508 31.0463 3.24023 31.062 3.24023C31.062 3.20898 31.1342 3.18164 31.2787 3.1582C31.4155 3.23242 31.5229 3.36523 31.601 3.55664V3.65625C31.601 4.26172 30.9057 6.06445 29.5151 9.06445C28.6752 10.3105 28.2553 11.0195 28.2553 11.1914C28.0405 11.6328 27.933 11.8691 27.933 11.9004H27.9682C28.769 11.5059 29.728 11.1562 30.8452 10.8516L30.6987 10.957H30.7397C30.8178 10.9219 30.8764 10.9043 30.9155 10.9043V10.9277C30.9155 10.9707 30.5912 11.2168 29.9428 11.666H29.9838L32.3569 10.8516C32.2358 10.9219 32.1752 10.9648 32.1752 10.9805H32.2104C32.2885 10.9453 32.3491 10.9277 32.392 10.9277V10.957C32.1772 11.043 32.0698 11.1387 32.0698 11.2441C29.4135 12.877 27.6733 13.8398 26.8491 14.1328C26.4936 14.2188 26.2436 14.377 26.0991 14.6074C26.0522 14.6855 26.0034 14.7285 25.9526 14.7363C25.8315 14.7363 25.7709 14.6309 25.7709 14.4199V14.2383L25.519 14.291C25.3041 14.1855 25.1967 14.0898 25.1967 14.0039V13.8164C25.1967 13.7734 25.3764 13.6348 25.7358 13.4004C25.7358 13.2793 25.8569 13.1211 26.0991 12.9258C26.3452 12.4102 26.56 11.666 26.7436 10.6934C26.7436 10.3145 27.4037 8.12695 28.7241 4.13086C28.7475 4.11523 28.8784 3.74805 29.1166 3.0293C29.2065 3.0293 29.2905 2.99414 29.3686 2.92383Z" fill="white"/>
<path d="M34.7632 3.58008C35.0874 3.69727 35.2534 3.91406 35.2612 4.23047C35.2808 4.23047 35.2905 4.23633 35.2905 4.24805L35.2964 4.48242V4.48828C35.2964 4.80859 34.8491 6.38672 33.9546 9.22266H33.9839C34.5073 9.14453 34.8609 9.10547 35.0445 9.10547H35.2261C35.6011 7.87891 35.8745 6.68555 36.0464 5.52539V5.51953C36.0464 5.375 36.146 5.25977 36.3452 5.17383C36.3452 5.19727 36.3745 5.2207 36.4331 5.24414C36.6089 5.16211 36.6968 5.03516 36.6968 4.86328V4.85156C36.7515 4.71484 36.8101 4.64648 36.8726 4.64648H37.0249C37.0327 4.61133 37.0835 4.58008 37.1773 4.55273C37.1968 4.58008 37.2066 4.60352 37.2066 4.62305L37.3589 4.59961C37.5855 4.75977 37.7007 4.95117 37.7046 5.17383C37.732 5.17383 37.7612 5.12891 37.7925 5.03906L37.9448 5.0625C37.9487 5.03125 37.9683 5.01562 38.0034 5.01562C38.0034 5.03125 38.0132 5.03906 38.0327 5.03906L38.0093 5.15039V5.17383H38.0386L38.1909 5.15039C38.273 5.22852 38.314 5.27539 38.314 5.29102C38.314 5.30664 38.3042 5.31445 38.2847 5.31445C38.3277 5.44727 38.3491 5.52344 38.3491 5.54297V5.54883C38.3491 5.76758 38.0659 7.00781 37.4995 9.26953C37.3237 10.207 37.0034 11.1699 36.5386 12.1582L36.1402 13.2715H36.0816L36.1577 12.8789V12.8555H36.1284L36.0171 13.2246H35.9585C35.9585 13.209 35.9683 13.2012 35.9878 13.2012C35.9644 13.166 35.9409 13.0664 35.9175 12.9023H35.9468L35.9175 12.8555L36.0933 11.2324V11.1914H36.0581C35.8941 11.8672 35.603 12.7363 35.1851 13.7988C35.1109 14.0488 35.0737 14.1953 35.0737 14.2383H35.0152L35.0093 14.0801L35.0327 13.9395V13.916H35.0034C34.9683 14.041 34.9507 14.1348 34.9507 14.1973H34.8921C34.8257 14.0332 34.7925 13.9082 34.7925 13.8223L34.7866 13.7344C34.7866 13.6484 34.7945 13.5391 34.8101 13.4062V13.3828H34.7808L34.4351 14.1973H34.3765L34.5171 13.7109V13.6875H34.482C34.3843 13.9805 34.3179 14.127 34.2827 14.127H34.2534L34.2769 13.9629V13.7812L34.7515 10.8398H34.7222C34.023 11.0469 33.5718 11.2012 33.3687 11.3027C33.3687 11.377 32.9527 12.5723 32.1206 14.8887H32.062V14.8652C32.062 14.8301 32.0796 14.7148 32.1148 14.5195V14.4961H32.0855C32.0347 14.7422 31.9859 14.8652 31.939 14.8652C31.896 14.6816 31.8745 14.5742 31.8745 14.543V14.5195C31.8745 14.4297 31.8882 14.2051 31.9155 13.8457L31.857 13.8691L31.7573 13.5703C31.773 13.2695 31.8062 12.9219 31.857 12.5273V12.5039H31.8218C31.5952 13.0273 31.3648 13.5293 31.1304 14.0098H31.0718L31.1831 13.6172V13.5938H31.1538C31.0601 13.8242 31.0132 13.9551 31.0132 13.9863H30.9487L30.9429 13.7109V13.7051C30.9429 13.5449 31.1597 12.4512 31.5933 10.4238C32.1519 8.42773 32.8277 6.25391 33.6206 3.90234C33.6909 3.79688 33.7808 3.74414 33.8902 3.74414C33.9292 3.75977 33.9585 3.76758 33.978 3.76758C33.9976 3.7207 34.0581 3.69727 34.1597 3.69727C34.1597 3.72852 34.1695 3.74414 34.189 3.74414L34.312 3.69727C34.3394 3.71289 34.3902 3.7207 34.4644 3.7207C34.4409 3.68945 34.4292 3.66602 34.4292 3.65039C34.5073 3.60352 34.6187 3.58008 34.7632 3.58008Z" fill="white"/>
<path d="M40.8335 4.61133C41.0562 4.61523 41.2866 4.67578 41.5249 4.79297C42.5288 4.70312 43.3765 4.65039 44.0679 4.63477C45.1421 4.67773 46.0308 4.69922 46.7339 4.69922L46.7398 4.74609L46.3648 4.76953V4.79297H46.7925C46.7261 4.86328 46.4605 4.94531 45.9956 5.03906C45.73 5.13281 45.4116 5.20898 45.0405 5.26758L45.0464 5.29102L46.3237 5.35547L46.3355 5.40234H46.0249C45.982 5.40625 45.9605 5.41992 45.9605 5.44336V5.44922H46.3413L46.353 5.49609C46.0093 5.60156 44.978 5.75977 43.2593 5.9707C42.7788 5.98242 42.3706 5.98828 42.0347 5.98828L41.9585 6.01172C41.9116 5.99609 41.8589 5.98828 41.8003 5.98828H41.4546C41.4038 6.01562 41.3277 6.14453 41.2261 6.375C41.23 6.39453 41.3218 6.4707 41.5015 6.60352C41.4546 6.61914 41.4175 6.62695 41.3902 6.62695L41.396 6.64453L41.5308 6.73828C41.2144 7.67578 41.0562 8.17188 41.0562 8.22656V8.23242L41.6245 8.18555L41.6304 8.20898C41.7515 8.17773 41.978 8.16211 42.3101 8.16211H42.5034C42.6519 8.16211 43.3062 8.23047 44.4663 8.36719H44.5015L44.5132 8.41406C44.4937 8.41406 44.4175 8.41992 44.2847 8.43164L44.2905 8.45508H44.5601L44.5659 8.50195C44.0112 8.61523 43.648 8.7207 43.4761 8.81836C43.1831 8.86523 42.8628 8.92578 42.5152 9L42.521 9.02344H42.5972L42.603 9.04688C41.8062 9.42188 41.1636 9.60938 40.6753 9.60938C40.4917 10.6172 40.2085 11.5078 39.8257 12.2812L39.8316 12.3223C40.2378 12.2793 40.6187 12.2578 40.9741 12.2578C42.3687 12.2852 43.1909 12.2988 43.4409 12.2988H43.7866L43.7984 12.3457C43.7632 12.3457 43.6362 12.3535 43.4175 12.3691L43.4234 12.3926H43.728L43.7339 12.416V12.4219C43.7339 12.4453 43.6987 12.457 43.6284 12.457V12.4805L43.8687 12.5039L43.8745 12.5508H43.8335C43.8023 12.5508 43.6773 12.5586 43.4585 12.5742V12.5977C43.8374 12.5977 44.1987 12.6055 44.5425 12.6211L44.5484 12.6621C44.3296 12.6777 44.2046 12.6855 44.1734 12.6855V12.709H44.5601L44.5659 12.7559C44.2183 12.8418 43.5523 12.9609 42.5679 13.1133C42.5171 13.1562 41.9409 13.293 40.8394 13.5234C40.5542 13.6602 39.6343 13.8027 38.0796 13.9512C37.8648 13.9512 37.7573 13.9863 37.7573 14.0566V14.0684C37.7339 14.127 37.7027 14.1562 37.6636 14.1562H37.6226L37.5991 14.0449H37.564L37.5464 14.1562H37.4702C37.3687 14.0312 37.314 13.9492 37.3062 13.9102L37.271 13.752L37.1831 13.6816L37.1773 13.6582L37.2066 13.6113C37.0112 13.6113 36.8296 13.5371 36.6616 13.3887C36.6265 13.3887 36.5835 13.3652 36.5327 13.3184L36.5269 13.2715V13.248C36.5269 13.166 36.6284 13.0469 36.8316 12.8906C36.9448 12.7305 37.103 12.625 37.3062 12.5742C37.5679 11.6836 37.8159 10.6738 38.0503 9.54492C38.5152 8.27539 39.0347 7.02344 39.6089 5.78906H39.5737C39.4136 5.75781 39.3296 5.72656 39.3218 5.69531L39.3394 5.58398C39.2378 5.58398 39.1812 5.56055 39.1695 5.51367V5.49023C39.1695 5.42773 39.2046 5.35352 39.2749 5.26758C39.2437 5.24023 39.2261 5.21094 39.2222 5.17969H39.3335L39.2866 5.13281L39.2808 5.08594C39.4644 4.90625 39.8296 4.81641 40.3765 4.81641C40.4468 4.69531 40.564 4.63477 40.728 4.63477C40.728 4.65039 40.7417 4.6582 40.7691 4.6582C40.7691 4.62695 40.7905 4.61133 40.8335 4.61133ZM39.0347 12.1641V12.1758C39.0347 12.2227 38.9976 12.2949 38.9234 12.3926H39.0405C39.0874 12.3926 39.1109 12.3789 39.1109 12.3516V12.3457L39.0698 12.1641H39.0347Z" fill="white"/>
<path d="M46.7339 11.4434C46.7964 11.4668 46.8277 11.4902 46.8277 11.5137C46.8433 11.5137 46.8511 11.5059 46.8511 11.4902C46.937 11.5059 46.9995 11.5137 47.0386 11.5137L47.0855 11.4902C47.1636 11.4902 47.2027 11.5469 47.2027 11.6602L47.2495 11.6367H47.273C47.3667 11.6602 47.4136 11.7578 47.4136 11.9297C47.4136 12.4609 47.2417 12.9199 46.898 13.3066C46.7339 13.3574 46.6011 13.4297 46.4995 13.5234L46.4761 13.4766L46.4292 13.5C46.3355 13.3555 46.2495 13.2832 46.1714 13.2832C45.9448 13.459 45.8198 13.5469 45.7964 13.5469V13.5234C45.812 13.4922 45.8198 13.4688 45.8198 13.4531C45.7886 13.4531 45.773 13.4766 45.773 13.5234H45.7261L45.7027 13.4004C45.7027 13.2129 45.687 12.9551 45.6558 12.627C45.7925 12.1348 45.8862 11.8613 45.937 11.8066C45.9995 11.8066 46.0308 11.7578 46.0308 11.6602L46.0777 11.6367V11.707H46.148C46.1792 11.707 46.1948 11.6836 46.1948 11.6367H46.2417C46.2495 11.7031 46.273 11.7363 46.312 11.7363C46.3745 11.7363 46.4058 11.6719 46.4058 11.543H46.4995C46.5698 11.6055 46.6089 11.6367 46.6167 11.6367H46.6402V11.6133L46.6167 11.4902C46.6675 11.459 46.7066 11.4434 46.7339 11.4434ZM47.8413 3.70312H47.9116C48.0132 3.78125 48.0991 3.82031 48.1695 3.82031C48.2359 3.75781 48.3452 3.72656 48.4976 3.72656H48.521C48.521 3.77734 48.5445 3.80273 48.5913 3.80273C48.5952 3.77539 48.6109 3.76172 48.6382 3.76172C48.6382 3.82812 48.646 3.86133 48.6616 3.86133L48.7788 3.84375C48.7788 3.87109 48.8179 3.89062 48.896 3.90234L48.9195 3.86133C49.0132 3.86914 49.0601 3.88281 49.0601 3.90234L49.1538 3.86133C49.1538 3.87305 49.1616 3.87891 49.1773 3.87891L49.1538 3.91992L49.271 4.00195C49.2398 4.00586 49.2085 4.03711 49.1773 4.0957C49.2554 4.0957 49.3023 4.17383 49.3179 4.33008C49.3179 4.59961 48.9038 6.36719 48.0757 9.63281L47.3023 11.6191H47.2554V11.6016L47.2788 11.4258V11.4023H47.2554C47.2241 11.4844 47.2085 11.5508 47.2085 11.6016H47.1616C47.1304 11.4961 47.1148 11.4297 47.1148 11.4023V11.0918C47.021 10.877 46.9741 10.6406 46.9741 10.3828V9.63281C46.9741 9.60938 46.9585 9.59766 46.9273 9.59766L46.646 10.4004H46.5991C46.5991 10.373 46.6226 10.2617 46.6695 10.0664V10.0488H46.646L46.5523 10.3418H46.5054C46.5054 10.3105 46.4976 10.2129 46.482 10.0488C46.6851 8.11133 46.9195 6.66406 47.1851 5.70703C47.3101 5.26172 47.4351 4.64648 47.5601 3.86133C47.6577 3.86133 47.7359 3.81641 47.7945 3.72656L47.8413 3.70312Z" fill="white"/>
</svg>
